<svg
      xmlns="http://www.w3.org/2000/svg"
      version="1.1"
      xmlns:xlink="http://www.w3.org/1999/xlink"
      xmlns:svgjs="http://svgjs.dev/svgjs"
      width="1440"
      height="560"
      preserveAspectRatio="none"
      viewBox="0 0 1440 560"
    >
      <g mask='url("#SvgjsMask1001")' fill="none">
        <path
          d="M280 40C251.66 40 202.22 105.99 202.22 140C202.22 161.06 241.76 150.14 280 150.14C293.15 150.14 305 151.42 305 140C305 96.35 303.05 40 280 40"
          stroke="rgba(51, 121, 194, 0.58)"
          stroke-width="2"
        ></path>
        <path
          d="M672 0C686.41 0.79 686.75 7.64 700 7.64C705.75 7.64 703.82 0.34 710 0C773.82 -3.48 775 0 840 0C910 0 910 0 980 0C1010 0 1014.21 -11.91 1040 0C1084.21 20.4 1081.71 64.62 1120 64.62C1154.02 64.62 1146.26 17.71 1184.62 0C1216.26 -14.6 1222.31 0 1260 0C1298.43 0 1336.86 -16.37 1336.86 0C1336.86 23.63 1298.77 40.34 1260 80C1230.34 110.34 1200 113.96 1200 140C1200 161.25 1227.65 174.59 1260 174.59C1324.47 174.59 1327.76 159.02 1393.64 140C1397.76 138.81 1397.94 137.95 1400 134.17C1436.12 67.95 1422.14 45.87 1470 0C1492.14 -21.22 1528.33 -23.33 1540 0C1563.33 46.67 1540 70 1540 140C1540 210 1540 210 1540 280C1540 350 1540 350 1540 420C1540 466.06 1562.55 512.11 1540 512.11C1503.23 512.11 1480.49 466.29 1421.36 420C1410.49 411.49 1411.37 402.5 1400 402.5C1385.69 402.5 1378.22 405.32 1370 420C1334.14 484.07 1352.83 507.84 1311.85 560C1297.83 577.84 1285.93 560 1260 560C1190 560 1190 560 1120 560C1050 560 1050 560 980 560C910 560 910 560 840 560C770 560 770 560 700 560C630 560 630 560 560 560C490 560 490 560 420 560C350 560 350 560 280 560C210 560 210 560 140 560C70 560 35 595 0 560C-35 525 0 490 0 420C0 350 0 350 0 280C0 210 0 210 0 140C0 70 -35 35 0 0C35 -35 70 0 140 0C210 0 210 0 280 0C350 0 350 0 420 0C490 0 490 0 560 0C616 0 616.41 -3.03 672 0"
          stroke="rgba(51, 121, 194, 0.58)"
          stroke-width="2"
        ></path>
        <path
          d="M980 72C959.63 72 946 104.42 946 140C946 197.92 958.83 259 980 259C1002.28 259 1032.89 196.27 1032.89 140C1032.89 102.77 1003.08 72 980 72"
          stroke="rgba(51, 121, 194, 0.58)"
          stroke-width="2"
        ></path>
        <path
          d="M420 240.63C410.81 240.63 413.82 261.63 402.74 280C359.73 351.32 306.99 360 311.82 420C315.62 467.19 373.94 494.38 420 494.38C450.48 494.38 461.12 460.65 464.91 420C471.12 353.46 457.13 348.43 440 280C434.68 258.75 429.44 240.63 420 240.63"
          stroke="rgba(51, 121, 194, 0.58)"
          stroke-width="2"
        ></path>
        <path
          d="M140 17.5C72.05 58.72 43.96 100.2 0 94.71C-26.04 91.45 -28.25 19.11 0 0C41.75 -28.25 70 0 140 0C148.07 0 156.15 -3.54 156.15 0C156.15 5.21 150.12 11.36 140 17.5"
          stroke="rgba(51, 121, 194, 0.58)"
          stroke-width="2"
        ></path>
        <path
          d="M560 140C630 105.63 633.45 111.2 700 71.27C750.11 41.2 743.24 25.5 793.33 0C813.24 -10.13 816.66 0 840 0C886.66 0 922.36 -27.42 933.33 0C950.36 42.58 922.65 73.38 896 140C875.98 190.04 873.79 191.7 840 233.33C816.97 261.7 782.35 258.84 782.35 280C782.35 299.07 812.36 295.07 840 313.79C911.19 362.02 909.55 364.58 980 413.91C985.39 417.68 985.28 418.53 991.67 420C1055.28 434.62 1056.56 446.1 1120 446.1C1161.25 446.1 1201.05 439.58 1201.05 420C1201.05 396.92 1154.74 396.06 1120 360.77C1085.84 326.06 1065.11 324.2 1063.24 280C1060.44 213.82 1084.48 208.33 1110.67 140C1112.86 134.29 1115.42 131.92 1120 131.92C1124.37 131.92 1123.53 136.98 1128.57 140C1193.53 178.9 1189.82 201.75 1260 215.76C1325.53 228.84 1333.64 215.49 1400 194.19C1451.64 177.61 1463.39 180.22 1496 140C1533.39 93.9 1528.64 21.54 1540 21.54C1550.64 21.54 1540 80.77 1540 140C1540 188.13 1545.48 189.11 1540 236.25C1537.34 259.11 1523.72 259.16 1523.72 280C1523.72 292.7 1538.4 289.61 1540 303.33C1546.54 359.61 1540 361.66 1540 420C1540 443.02 1551.27 466.05 1540 466.05C1521.61 466.05 1509.98 443.47 1480.68 420C1439.98 387.39 1442.96 353.89 1400 353.89C1345.96 353.89 1335.86 379.66 1286.67 420C1265.86 437.07 1270.91 443.25 1260 468.7C1240.91 513.25 1260.04 538.24 1226.67 560C1190.04 583.89 1173.34 560 1120 560C1050 560 1050 560 980 560C910 560 910 560 840 560C770 560 770 560 700 560C630 560 630 560 560 560C502.97 560 451.9 588.74 445.93 560C437.37 518.74 517.75 494.4 530.94 420C542.57 354.4 488.53 347.72 495.56 280C503.06 207.72 527.78 210 560 140C560 140 560 140 560 140"
          stroke="rgba(51, 121, 194, 0.58)"
          stroke-width="2"
        ></path>
        <path
          d="M1260 8.57C1255.94 8.57 1251.92 2.54 1251.92 0C1251.92 -1.74 1255.96 0 1260 0C1264.12 0 1268.24 -1.75 1268.24 0C1268.24 2.53 1264.1 8.57 1260 8.57"
          stroke="rgba(51, 121, 194, 0.58)"
          stroke-width="2"
        ></path>
        <path
          d="M73.18 280C73.18 241.73 97.79 226.15 140 210C201.2 186.59 219.53 181.16 280 200.87C326.93 216.16 354.79 238.99 354.79 280C354.79 324.82 329.23 348.47 280 372.54C221.84 400.97 194.85 409.54 140 385C91.44 363.27 73.18 329.23 73.18 280"
          stroke="rgba(51, 121, 194, 0.58)"
          stroke-width="2"
        ></path>
        <path
          d="M44.8 560C44.8 524.48 82.38 455.33 140 443.9C199.98 432 211.75 475.6 280 513.33C316.75 533.65 350 547.26 350 560C350 570.6 315 560 280 560C210 560 210 560 140 560C92.4 560 44.8 582.53 44.8 560"
          stroke="rgba(51, 121, 194, 0.58)"
          stroke-width="2"
        ></path>
        <path
          d="M689.63 140C689.63 135.07 694.35 136.04 700 134.91C769.54 121.04 779.93 107.91 840 110C852.93 110.45 846 125.52 846 140C846 145.52 845.5 148.49 840 150C772.5 168.49 758.35 183.88 700 180C683.16 178.88 689.63 157.62 689.63 140"
          stroke="rgba(51, 121, 194, 0.58)"
          stroke-width="2"
        ></path>
        <path
          d="M171.11 280C171.11 264.68 229.63 251.59 280 251.59C297.5 251.59 306.85 265.28 306.85 280C306.85 296.09 298.52 313.22 280 313.22C230.65 313.22 171.11 295.5 171.11 280"
          stroke="rgba(51, 121, 194, 0.58)"
          stroke-width="2"
        ></path>
        <path
          d="M551.11 280C551.11 270 551.25 260.69 560 260.69C586.81 260.69 622.22 267.81 622.22 280C622.22 293.02 584.27 311.11 560 311.11C548.71 311.11 551.11 295.21 551.11 280"
          stroke="rgba(51, 121, 194, 0.58)"
          stroke-width="2"
        ></path>
        <path
          d="M1178.33 280C1178.33 260.54 1218.2 262.47 1260 256.94C1329.03 247.8 1333.34 242.22 1400 250.65C1424.5 253.75 1442.33 266.04 1442.33 280C1442.33 293.36 1423.13 297.26 1400 305.28C1331.96 328.87 1324.74 350.61 1260 343.23C1213.9 337.97 1178.33 303.68 1178.33 280"
          stroke="rgba(51, 121, 194, 0.58)"
          stroke-width="2"
        ></path>
        <path
          d="M779.55 420C779.55 390.02 809.65 374.14 840 374.14C870.8 374.14 901.86 389.83 901.86 420C901.86 473.21 870.65 540.91 840 540.91C809.49 540.91 779.55 473.41 779.55 420"
          stroke="rgba(51, 121, 194, 0.58)"
          stroke-width="2"
        ></path>
        <path
          d="M114.8 560C114.8 550.6 124.65 529.27 140 529.27C163.5 529.27 192.5 551.75 192.5 560C192.5 567.12 166.25 560 140 560C127.4 560 114.8 565.96 114.8 560"
          stroke="rgba(51, 121, 194, 0.58)"
          stroke-width="2"
        ></path>
        <path
          d="M510.74 560C510.74 533.51 531.46 479.39 560 479.39C593.04 479.39 633.89 535.95 633.89 560C633.89 576.25 596.94 560 560 560C535.37 560 510.74 573.81 510.74 560"
          stroke="rgba(51, 121, 194, 0.58)"
          stroke-width="2"
        ></path>
        <path
          d="M878.18 560C878.18 551.01 927.72 536.8 980 525C1048.63 509.51 1057.5 493.97 1120 505.42C1153.06 511.47 1171.11 543.79 1171.11 560C1171.11 571.08 1145.55 560 1120 560C1050 560 1050 560 980 560C929.09 560 878.18 568.51 878.18 560"
          stroke="rgba(51, 121, 194, 0.58)"
          stroke-width="2"
        ></path>
      </g>
      <defs>
        <mask id="SvgjsMask1001">
          <rect width="1440" height="560" fill="#ffffff"></rect>
        </mask>
      </defs>
    </svg>
 
